<svg width="28" height="20" viewBox="0 0 28 20" fill="none" xmlns="http://www.w3.org/2000/svg">
<rect width="28" height="20" rx="10" fill="#2B3660" style="fill:#2B3660;fill:color(display-p3 0.1686 0.2118 0.3765);fill-opacity:1;"/>
<path d="M18 16.6667C18.5304 16.6667 19.0391 16.456 19.4142 16.0809C19.7893 15.7058 20 15.1971 20 14.6667C20 14.1362 19.7893 13.6275 19.4142 13.2525C19.0391 12.8774 18.5304 12.6667 18 12.6667C17.4696 12.6667 16.9609 12.8774 16.5858 13.2525C16.2107 13.6275 16 14.1362 16 14.6667C16 15.1971 16.2107 15.7058 16.5858 16.0809C16.9609 16.456 17.4696 16.6667 18 16.6667ZM18 7.33334C18.5304 7.33334 19.0391 7.12263 19.4142 6.74756C19.7893 6.37248 20 5.86378 20 5.33334C20 4.80291 19.7893 4.2942 19.4142 3.91913C19.0391 3.54406 18.5304 3.33334 18 3.33334C17.4696 3.33334 16.9609 3.54406 16.5858 3.91913C16.2107 4.2942 16 4.80291 16 5.33334C16 5.86378 16.2107 6.37248 16.5858 6.74756C16.9609 7.12263 17.4696 7.33334 18 7.33334ZM10 12C10.5304 12 11.0391 11.7893 11.4142 11.4142C11.7893 11.0392 12 10.5304 12 10C12 9.46958 11.7893 8.96087 11.4142 8.5858C11.0391 8.21072 10.5304 8.00001 10 8.00001C9.46957 8.00001 8.96086 8.21072 8.58579 8.5858C8.21071 8.96087 8 9.46958 8 10C8 10.5304 8.21071 11.0392 8.58579 11.4142C8.96086 11.7893 9.46957 12 10 12Z" stroke="#F2F7FB" style="stroke:#F2F7FB;stroke:color(display-p3 0.9490 0.9686 0.9843);stroke-opacity:1;" stroke-width="1.25" stroke-linecap="round" stroke-linejoin="round"/>
<path d="M16.3337 6.33334L11.667 9.00001M11.667 11L16.3337 13.6667" stroke="#F2F7FB" style="stroke:#F2F7FB;stroke:color(display-p3 0.9490 0.9686 0.9843);stroke-opacity:1;" stroke-width="1.25"/>
</svg>
