<svg width="16" height="16" viewBox="0 0 16 16" fill="none" xmlns="http://www.w3.org/2000/svg">
<path d="M12 14.6666C12.5304 14.6666 13.0391 14.4559 13.4142 14.0809C13.7893 13.7058 14 13.1971 14 12.6666C14 12.1362 13.7893 11.6275 13.4142 11.2524C13.0391 10.8774 12.5304 10.6666 12 10.6666C11.4696 10.6666 10.9609 10.8774 10.5858 11.2524C10.2107 11.6275 10 12.1362 10 12.6666C10 13.1971 10.2107 13.7058 10.5858 14.0809C10.9609 14.4559 11.4696 14.6666 12 14.6666ZM12 5.33331C12.5304 5.33331 13.0391 5.1226 13.4142 4.74753C13.7893 4.37245 14 3.86375 14 3.33331C14 2.80288 13.7893 2.29417 13.4142 1.9191C13.0391 1.54403 12.5304 1.33331 12 1.33331C11.4696 1.33331 10.9609 1.54403 10.5858 1.9191C10.2107 2.29417 10 2.80288 10 3.33331C10 3.86375 10.2107 4.37245 10.5858 4.74753C10.9609 5.1226 11.4696 5.33331 12 5.33331ZM4 9.99998C4.53043 9.99998 5.03914 9.78927 5.41421 9.41419C5.78929 9.03912 6 8.53041 6 7.99998C6 7.46955 5.78929 6.96084 5.41421 6.58577C5.03914 6.21069 4.53043 5.99998 4 5.99998C3.46957 5.99998 2.96086 6.21069 2.58579 6.58577C2.21071 6.96084 2 7.46955 2 7.99998C2 8.53041 2.21071 9.03912 2.58579 9.41419C2.96086 9.78927 3.46957 9.99998 4 9.99998Z" stroke="#060911" style="stroke:#060911;stroke:color(display-p3 0.0233 0.0368 0.0667);stroke-opacity:1;" stroke-width="1.25" stroke-linecap="round" stroke-linejoin="round"/>
<path d="M10.3327 4.33331L5.66602 6.99998M5.66602 8.99998L10.3327 11.6666" stroke="#060911" style="stroke:#060911;stroke:color(display-p3 0.0233 0.0368 0.0667);stroke-opacity:1;" stroke-width="1.25"/>
</svg>
